<svg id="svg" version="1.1"
xmlns="http://www.w3.org/2000/svg"
xmlns:xlink="http://www.w3.org/1999/xlink"
width="400" height="232.85899094437258"
viewBox="0, 0, 400,232.85899094437258">

<g id="svgg">
<path id="path0" d="M0.500 62.667 L 0.500 125.333 16.417 125.333 L 32.333 125.333 32.333 100.667 L 32.333 76.000 55.917 76.000 L 79.500 76.000 79.500 62.583 L 79.500 49.167 55.917 49.167 L 32.333 49.167 32.333 38.333 L 32.333 27.500 59.000 27.500 L 85.667 27.500 85.667 13.750 L 85.667 0.000 43.083 0.000 L 0.500 0.000 0.500 62.667 M100.833 62.667 L 100.833 125.333 145.417 125.333 L 190.000 125.333 190.000 111.667 L 190.000 98.000 160.417 98.000 L 130.833 98.000 130.833 87.000 L 130.833 76.000 156.417 76.000 L 182.000 76.000 182.000 62.583 L 182.000 49.167 156.417 49.167 L 130.833 49.167 130.833 38.333 L 130.833 27.500 159.417 27.500 L 188.000 27.500 188.000 13.750 L 188.000 0.000 144.417 0.000 L 100.833 0.000 100.833 62.667 M233.833 0.108 C 233.512 0.138,232.313 0.246,231.167 0.348 C 217.170 1.596,209.463 7.924,207.133 20.083 L 206.750 22.083 206.750 39.917 C 206.750 56.625,206.769 57.834,207.056 59.083 C 209.167 68.279,214.048 73.339,222.917 75.526 L 224.417 75.896 245.797 75.955 L 267.177 76.013 267.130 85.548 L 267.083 95.083 266.635 95.846 C 266.168 96.640,265.322 97.304,264.350 97.638 C 263.926 97.784,256.363 97.833,234.225 97.833 L 204.667 97.833 204.667 111.590 L 204.667 125.347 238.208 125.282 C 261.653 125.237,272.227 125.161,273.333 125.029 C 288.418 123.240,295.820 116.701,297.513 103.667 C 298.004 99.890,297.999 69.833,297.507 66.956 C 296.000 58.142,290.684 52.134,282.573 50.076 C 279.485 49.293,279.278 49.287,257.617 49.325 L 237.151 49.361 237.201 39.972 L 237.250 30.583 237.667 29.752 C 237.909 29.269,238.383 28.695,238.799 28.382 C 240.269 27.273,238.762 27.333,265.030 27.333 L 288.833 27.333 288.833 13.667 L 288.833 0.000 261.625 0.027 C 246.660 0.041,234.154 0.078,233.833 0.108 M335.000 76.417 L 335.000 125.333 351.417 125.333 L 367.833 125.333 367.833 76.417 L 367.833 27.500 351.417 27.500 L 335.000 27.500 335.000 76.417 M68.375 201.919 C 63.460 202.987,60.671 208.575,60.668 217.358 C 60.664 228.246,64.915 234.165,71.605 232.588 C 75.911 231.572,78.296 227.342,78.865 219.708 C 79.762 207.680,75.458 200.381,68.375 201.919 M167.061 201.915 C 161.718 203.078,158.702 209.996,159.347 219.616 C 159.978 229.040,163.988 233.930,170.033 232.646 C 175.031 231.585,177.560 226.360,177.568 217.083 C 177.577 206.180,173.633 200.486,167.061 201.915 M371.417 202.069 C 365.196 203.512,361.907 208.556,361.708 216.961 C 361.423 229.018,367.370 234.762,377.417 232.133 L 378.917 231.741 378.960 223.870 L 379.003 216.000 375.168 216.000 L 371.333 216.000 371.333 217.917 L 371.333 219.833 372.917 219.833 L 374.500 219.833 374.500 224.149 C 374.500 229.045,374.626 228.667,372.993 228.667 C 365.321 228.667,363.886 210.169,371.289 206.701 C 372.470 206.147,375.689 206.045,376.943 206.521 L 377.636 206.784 377.714 206.267 C 377.757 205.983,377.948 205.077,378.138 204.255 C 378.401 203.116,378.435 202.728,378.283 202.629 C 377.280 201.975,373.241 201.646,371.417 202.069 M344.500 202.106 C 344.179 202.145,343.523 202.255,343.042 202.351 L 342.167 202.524 342.167 217.512 L 342.167 232.500 344.500 232.500 L 346.833 232.500 346.833 226.167 L 346.833 219.833 347.875 219.837 C 350.370 219.846,351.455 221.178,352.078 225.000 C 352.533 227.789,353.151 230.850,353.433 231.708 L 353.693 232.500 356.116 232.500 L 358.539 232.500 358.454 232.125 C 358.407 231.919,358.145 230.850,357.871 229.750 C 357.597 228.650,357.245 227.075,357.090 226.250 C 356.270 221.918,355.884 220.709,354.963 219.592 C 354.674 219.240,354.113 218.747,353.718 218.497 C 352.939 218.002,352.953 217.944,353.974 217.425 C 358.786 214.980,358.908 205.847,354.163 203.264 C 352.271 202.234,347.809 201.699,344.500 202.106 M6.747 202.375 C 6.705 202.490,5.919 205.996,5.001 210.167 C 4.083 214.338,3.221 218.200,3.086 218.750 C 2.951 219.300,2.692 220.425,2.510 221.250 C 2.328 222.075,1.830 224.325,1.404 226.250 C 0.978 228.175,0.527 230.229,0.402 230.815 C 0.277 231.401,0.130 232.020,0.076 232.190 C -0.017 232.482,0.112 232.500,2.319 232.500 L 4.660 232.500 4.756 232.042 C 4.809 231.790,4.919 231.283,5.001 230.917 C 5.083 230.550,5.381 229.088,5.664 227.667 C 5.947 226.246,6.219 224.950,6.268 224.788 C 6.351 224.517,6.610 224.496,9.380 224.538 L 12.401 224.583 13.033 227.667 C 13.381 229.362,13.746 231.144,13.845 231.625 L 14.024 232.500 16.363 232.500 L 18.703 232.500 18.586 232.042 C 18.522 231.790,18.328 230.871,18.156 230.000 C 17.984 229.129,17.613 227.329,17.331 226.000 C 17.050 224.671,16.562 222.308,16.247 220.750 C 15.932 219.192,15.369 216.454,14.996 214.667 C 13.982 209.812,13.191 205.965,12.795 203.958 L 12.441 202.167 9.632 202.167 C 7.536 202.167,6.804 202.220,6.747 202.375 M22.378 213.625 C 22.449 226.455,22.423 226.143,23.677 228.772 C 26.324 234.320,34.888 234.203,37.523 228.583 C 38.756 225.954,38.737 226.187,38.794 213.542 L 38.846 202.167 36.429 202.167 L 34.011 202.167 33.964 213.792 C 33.917 225.411,33.916 225.417,33.541 226.344 C 32.371 229.236,29.207 229.462,27.922 226.746 C 27.211 225.243,27.169 224.476,27.168 213.042 L 27.167 202.167 24.741 202.167 L 22.314 202.167 22.378 213.625 M43.000 204.333 L 43.000 206.500 45.750 206.500 L 48.500 206.500 48.500 219.505 L 48.500 232.509 50.875 232.463 L 53.250 232.417 53.293 219.458 L 53.335 206.500 56.001 206.500 L 58.667 206.500 58.667 204.333 L 58.667 202.167 50.833 202.167 L 43.000 202.167 43.000 204.333 M84.936 202.537 C 84.896 202.746,84.782 204.267,84.682 205.917 C 84.582 207.567,84.387 210.604,84.247 212.667 C 84.108 214.729,83.845 218.667,83.663 221.417 C 83.480 224.167,83.259 227.429,83.172 228.667 C 83.084 229.904,83.009 231.273,83.006 231.708 L 83.000 232.500 84.985 232.500 L 86.971 232.500 87.064 231.875 C 87.116 231.531,87.238 229.375,87.337 227.083 C 87.435 224.792,87.624 220.817,87.758 218.250 C 87.891 215.683,88.000 212.777,88.000 211.792 C 88.000 210.708,88.066 210.000,88.167 210.000 C 88.258 210.000,88.333 210.175,88.333 210.388 C 88.333 211.134,89.351 215.953,90.433 220.333 C 91.033 222.762,91.855 226.100,92.259 227.750 C 92.664 229.400,93.074 231.031,93.171 231.375 L 93.347 232.000 95.007 232.000 C 95.920 232.000,96.667 231.969,96.667 231.931 C 96.667 231.893,97.047 230.374,97.512 228.556 C 99.783 219.680,100.530 216.600,101.167 213.477 C 101.548 211.611,101.880 210.065,101.904 210.040 C 101.983 209.962,102.167 213.498,102.162 214.984 C 102.156 216.609,102.820 231.129,102.938 231.958 L 103.015 232.500 105.081 232.500 C 106.217 232.500,107.175 232.444,107.210 232.375 C 107.245 232.306,107.182 230.675,107.071 228.750 C 106.960 226.825,106.786 223.787,106.683 222.000 C 106.580 220.213,106.423 217.662,106.334 216.333 C 106.244 215.004,106.092 212.417,105.997 210.583 C 105.901 208.750,105.750 206.320,105.661 205.184 C 105.573 204.048,105.500 202.904,105.500 202.642 L 105.500 202.167 102.923 202.167 L 100.346 202.167 100.179 202.792 C 100.088 203.135,99.776 204.467,99.487 205.750 C 99.197 207.033,98.814 208.721,98.634 209.500 C 97.022 216.503,96.328 219.690,95.914 222.000 C 95.676 223.329,95.439 224.529,95.388 224.667 C 95.337 224.804,95.048 223.717,94.745 222.250 C 94.442 220.783,93.924 218.458,93.594 217.083 C 93.057 214.845,92.412 212.136,90.619 204.583 L 90.065 202.250 87.537 202.204 C 85.022 202.158,85.008 202.160,84.936 202.537 M117.425 202.375 C 117.369 202.556,116.664 205.721,115.096 212.833 C 114.864 213.887,114.368 216.100,113.994 217.750 C 113.620 219.400,113.247 221.088,113.165 221.500 C 113.083 221.912,112.525 224.425,111.925 227.083 C 111.325 229.742,110.833 232.048,110.833 232.208 C 110.833 232.472,111.051 232.500,113.072 232.500 C 115.059 232.500,115.321 232.467,115.402 232.208 C 115.480 231.959,116.999 224.665,117.000 224.538 C 117.000 224.513,118.368 224.513,120.040 224.538 L 123.080 224.583 123.630 227.250 C 123.932 228.717,124.308 230.479,124.465 231.167 L 124.750 232.417 127.042 232.463 C 128.302 232.489,129.333 232.482,129.333 232.448 C 129.333 232.415,128.918 230.369,128.411 227.902 C 127.904 225.435,127.421 223.079,127.337 222.667 C 127.253 222.254,126.764 219.892,126.249 217.417 C 125.734 214.942,125.209 212.392,125.082 211.750 C 124.955 211.108,124.472 208.752,124.009 206.514 C 123.546 204.276,123.167 202.382,123.167 202.306 C 123.167 202.065,117.500 202.134,117.425 202.375 M129.667 204.333 L 129.667 206.500 132.332 206.500 L 134.998 206.500 135.041 219.458 L 135.083 232.417 137.458 232.463 L 139.833 232.509 139.833 219.505 L 139.833 206.500 142.583 206.500 L 145.333 206.500 145.333 204.333 L 145.333 202.167 137.500 202.167 L 129.667 202.167 129.667 204.333 M149.541 217.292 L 149.583 232.417 151.958 232.463 L 154.333 232.509 154.333 217.338 L 154.333 202.167 151.916 202.167 L 149.498 202.167 149.541 217.292 M182.500 217.333 L 182.500 232.500 184.667 232.500 L 186.833 232.500 186.833 226.822 C 186.833 221.225,186.589 211.883,186.409 210.583 C 186.242 209.381,186.588 210.185,187.727 213.650 C 188.745 216.744,189.836 219.598,193.659 229.167 L 194.958 232.417 197.146 232.463 L 199.333 232.510 199.333 217.338 L 199.333 202.167 197.223 202.167 L 195.114 202.167 195.219 210.542 C 195.277 215.148,195.407 219.983,195.507 221.286 C 195.608 222.589,195.666 223.864,195.637 224.119 C 195.576 224.645,195.693 224.913,194.245 220.917 C 193.536 218.958,193.134 217.894,191.917 214.750 C 191.171 212.822,189.692 209.052,188.337 205.625 L 186.970 202.167 184.735 202.167 L 182.500 202.167 182.500 217.333 M232.374 217.292 L 232.417 232.417 234.792 232.463 L 237.167 232.509 237.167 217.338 L 237.167 202.167 234.749 202.167 L 232.332 202.167 232.374 217.292 M241.500 204.333 L 241.500 206.500 244.166 206.500 L 246.831 206.500 246.874 219.458 L 246.917 232.417 249.292 232.463 L 251.667 232.509 251.667 219.505 L 251.667 206.500 254.417 206.500 L 257.167 206.500 257.167 204.333 L 257.167 202.167 249.333 202.167 L 241.500 202.167 241.500 204.333 M283.167 217.333 L 283.167 232.500 289.667 232.500 L 296.167 232.500 296.167 230.417 L 296.167 228.333 292.083 228.333 L 288.000 228.333 288.000 223.500 L 288.000 218.667 291.583 218.667 L 295.167 218.667 295.167 216.667 L 295.167 214.667 291.583 214.667 L 288.000 214.667 288.000 210.500 L 288.000 206.333 291.833 206.333 L 295.667 206.333 295.667 204.250 L 295.667 202.167 289.417 202.167 L 283.167 202.167 283.167 217.333 M301.041 217.287 L 301.083 232.417 303.230 232.463 L 305.377 232.510 305.270 222.963 C 305.212 217.713,305.126 212.629,305.080 211.667 L 304.997 209.917 306.059 213.083 C 306.643 214.825,307.352 216.863,307.635 217.612 C 308.241 219.219,312.491 229.953,313.117 231.458 L 313.550 232.500 315.775 232.500 L 318.000 232.500 318.000 217.333 L 318.000 202.167 315.899 202.167 L 313.798 202.167 313.900 211.625 C 313.956 216.827,314.039 221.871,314.083 222.833 C 314.174 224.802,314.181 224.809,313.178 222.000 C 312.217 219.311,310.485 214.736,309.170 211.417 C 308.516 209.767,307.614 207.479,307.165 206.333 C 306.717 205.188,306.173 203.800,305.957 203.250 L 305.564 202.250 303.281 202.204 L 300.998 202.157 301.041 217.287 M324.167 217.333 L 324.167 232.500 330.667 232.500 L 337.167 232.500 337.167 230.417 L 337.167 228.333 333.083 228.333 L 329.000 228.333 329.000 223.500 L 329.000 218.667 332.583 218.667 L 336.167 218.667 336.167 216.667 L 336.167 214.667 332.583 214.667 L 329.000 214.667 329.000 210.500 L 329.000 206.333 332.833 206.333 L 336.667 206.333 336.667 204.250 L 336.667 202.167 330.417 202.167 L 324.167 202.167 324.167 217.333 M381.748 202.458 C 381.812 202.619,382.165 203.575,382.533 204.583 C 382.900 205.592,384.356 209.567,385.768 213.417 L 388.335 220.417 388.334 226.463 L 388.333 232.509 390.708 232.463 L 393.083 232.417 393.169 225.917 L 393.255 219.417 393.720 218.333 C 393.975 217.737,394.828 215.563,395.615 213.500 C 396.402 211.438,397.176 209.412,397.336 209.000 C 397.495 208.588,397.852 207.650,398.128 206.917 C 398.404 206.183,398.900 204.891,399.231 204.045 C 399.562 203.199,399.833 202.429,399.833 202.332 C 399.833 202.216,399.009 202.173,397.381 202.204 L 394.929 202.250 394.771 202.833 C 394.684 203.154,394.101 205.142,393.476 207.250 C 391.946 212.411,391.917 212.516,391.475 214.375 C 391.014 216.320,390.991 216.331,390.600 214.792 C 390.304 213.628,389.229 210.048,387.573 204.708 L 386.784 202.167 384.208 202.167 C 381.820 202.167,381.640 202.188,381.748 202.458 M350.665 206.224 C 352.925 207.363,353.550 211.442,351.880 214.145 C 351.048 215.491,349.670 216.167,347.760 216.167 L 346.833 216.167 346.833 211.011 L 346.833 205.854 347.375 205.779 C 348.395 205.637,349.906 205.841,350.665 206.224 M70.939 206.153 C 74.869 207.938,75.201 225.188,71.361 228.117 C 68.083 230.617,65.614 225.997,65.598 217.333 C 65.583 208.976,67.645 204.658,70.939 206.153 M169.398 206.065 C 173.460 207.762,173.958 225.348,170.023 228.150 C 166.985 230.313,164.543 226.409,164.238 218.901 C 163.883 210.172,166.090 204.682,169.398 206.065 M9.992 209.935 C 10.461 212.829,10.800 214.782,11.494 218.583 C 11.678 219.592,11.829 220.510,11.831 220.625 C 11.833 220.783,11.223 220.833,9.330 220.833 L 6.827 220.833 6.906 220.458 C 6.949 220.252,7.143 219.258,7.337 218.250 C 7.531 217.242,7.797 215.892,7.927 215.250 C 8.177 214.026,9.330 207.194,9.332 206.931 C 9.337 206.288,9.583 207.408,9.992 209.935 M120.651 209.676 C 121.021 212.030,121.637 215.577,122.178 218.467 C 122.671 221.095,122.913 220.833,119.989 220.833 C 117.675 220.833,117.484 220.810,117.563 220.542 C 117.845 219.588,119.549 210.219,119.921 207.583 C 120.078 206.470,120.204 206.831,120.651 209.676 " stroke="none" fill="#344464" fill-rule="evenodd">
</path>
<path id="path1" d="M304.374 13.708 L 304.417 27.417 351.875 27.459 L 399.333 27.501 399.333 13.750 L 399.333 0.000 351.832 0.000 L 304.331 0.000 304.374 13.708 M0.333 166.250 L 0.333 179.667 199.833 179.667 L 399.333 179.667 399.333 166.250 L 399.333 152.833 199.833 152.833 L 0.333 152.833 0.333 166.250 M209.667 217.583 L 209.667 222.333 214.333 222.333 L 219.000 222.333 219.000 217.583 L 219.000 212.833 214.333 212.833 L 209.667 212.833 209.667 217.583 M263.000 217.583 L 263.000 222.333 267.750 222.333 L 272.500 222.333 272.500 217.583 L 272.500 212.833 267.750 212.833 L 263.000 212.833 263.000 217.583 " stroke="none" fill="#ac342c" fill-rule="evenodd"></path>
<path id="path2" d="M0.019 115.958 C 0.030 179.735,0.072 231.767,0.113 231.583 C 0.154 231.400,0.373 230.425,0.600 229.417 C 1.085 227.257,1.583 225.010,1.911 223.500 C 2.041 222.904,2.308 221.704,2.505 220.833 C 2.703 219.963,2.959 218.800,3.075 218.250 C 3.395 216.726,4.483 211.859,5.086 209.250 C 5.445 207.697,6.377 203.457,6.597 202.375 C 6.672 202.003,6.699 202.000,9.583 202.000 L 12.494 202.000 12.590 202.458 C 12.643 202.710,12.763 203.254,12.857 203.667 C 12.951 204.079,13.094 204.792,13.174 205.250 C 13.255 205.708,13.514 206.983,13.752 208.083 C 13.989 209.183,14.251 210.458,14.335 210.917 C 14.419 211.375,14.681 212.650,14.918 213.750 C 15.156 214.850,15.417 216.125,15.500 216.583 C 15.583 217.042,15.844 218.317,16.080 219.417 C 16.656 222.096,17.491 226.146,17.764 227.583 C 18.043 229.053,18.642 231.823,18.763 232.208 C 18.849 232.477,18.661 232.500,16.363 232.500 L 13.871 232.500 13.670 231.375 C 13.482 230.326,13.336 229.618,12.572 226.042 L 12.279 224.667 9.324 224.667 L 6.369 224.667 6.193 225.625 C 6.096 226.152,5.823 227.521,5.586 228.667 C 5.350 229.813,5.078 231.144,4.983 231.625 L 4.810 232.500 2.405 232.500 C 0.913 232.500,0.000 232.563,0.000 232.667 C 0.000 232.777,4.895 232.830,14.375 232.822 C 26.114 232.813,28.612 232.773,28.000 232.604 C 25.087 231.802,23.403 229.682,22.555 225.750 C 22.302 224.579,22.260 223.050,22.208 213.208 L 22.149 202.000 24.658 202.000 L 27.167 202.000 27.167 212.562 C 27.167 224.035,27.239 225.168,28.082 226.830 C 29.274 229.183,32.227 229.045,33.316 226.585 C 33.915 225.230,34.000 223.487,34.000 212.557 L 34.000 202.000 36.500 202.000 L 39.000 202.000 39.000 212.501 C 39.000 223.665,38.923 225.039,38.172 227.250 C 37.193 230.132,35.458 231.928,33.000 232.604 C 32.391 232.772,35.627 232.811,50.167 232.811 C 65.230 232.811,67.971 232.776,67.381 232.592 C 63.034 231.233,60.503 225.617,60.503 217.333 C 60.503 207.455,64.041 201.750,70.167 201.750 C 76.020 201.751,79.027 206.958,79.021 217.083 C 79.016 225.946,76.567 231.379,72.026 232.602 C 71.399 232.771,80.416 232.810,119.000 232.805 C 145.262 232.802,166.520 232.744,166.240 232.677 C 157.317 230.542,156.500 206.701,165.203 202.459 C 173.368 198.480,179.436 208.165,177.436 221.984 C 176.561 228.028,174.093 231.807,170.453 232.672 C 170.158 232.742,215.292 232.795,270.750 232.790 C 326.208 232.784,371.321 232.750,371.000 232.713 C 363.575 231.864,359.350 221.256,362.351 211.000 C 364.394 204.019,371.001 200.130,377.375 202.156 C 378.704 202.578,378.688 202.514,378.095 205.083 C 377.661 206.963,377.763 206.894,376.090 206.438 C 369.928 204.756,365.997 210.402,366.794 219.791 C 367.284 225.558,369.265 228.385,372.833 228.408 L 374.250 228.417 374.295 224.208 L 374.339 220.000 372.753 220.000 L 371.167 220.000 371.167 217.917 L 371.167 215.833 375.083 215.833 L 379.000 215.833 379.000 223.820 L 379.000 231.807 378.458 231.970 C 377.252 232.331,376.281 232.551,375.373 232.667 C 374.847 232.734,380.173 232.799,387.208 232.811 L 400.000 232.833 399.992 217.625 L 399.984 202.417 399.573 203.500 C 398.556 206.187,398.126 207.302,397.839 208.000 C 397.669 208.412,397.303 209.350,397.026 210.083 C 396.749 210.817,396.262 212.092,395.944 212.917 C 395.317 214.542,393.974 218.078,393.476 219.414 C 393.195 220.168,393.167 220.812,393.167 226.373 L 393.167 232.500 390.667 232.500 L 388.167 232.500 388.167 226.416 L 388.167 220.333 387.690 218.958 C 387.427 218.202,387.023 217.096,386.791 216.500 C 386.559 215.904,385.300 212.492,383.993 208.917 C 382.686 205.342,381.583 202.323,381.541 202.208 C 381.482 202.047,382.069 202.000,384.137 202.000 L 386.809 202.000 387.586 204.458 C 388.013 205.810,388.616 207.704,388.925 208.667 C 389.575 210.694,390.582 214.171,390.747 214.958 C 390.912 215.751,391.087 215.624,391.320 214.542 C 391.538 213.528,391.567 213.424,392.777 209.250 C 393.981 205.097,394.623 202.957,394.815 202.458 L 394.992 202.000 397.496 202.000 L 400.000 202.000 400.000 101.000 C 400.000 11.333,399.972 0.000,399.750 0.000 C 399.530 0.000,399.500 1.639,399.500 13.750 L 399.500 27.500 383.667 27.500 L 367.833 27.500 367.833 76.501 L 367.833 125.502 351.375 125.459 L 334.917 125.417 334.875 76.458 L 334.833 27.500 319.583 27.500 L 304.333 27.500 304.333 13.750 L 304.333 0.000 296.668 0.000 L 289.002 0.000 288.959 13.708 L 288.917 27.417 264.667 27.500 L 240.417 27.583 239.667 27.974 C 237.337 29.186,237.426 28.732,237.366 39.785 L 237.316 49.154 258.533 49.212 L 279.750 49.271 281.583 49.703 C 290.934 51.906,296.386 58.051,297.747 67.917 C 298.142 70.780,298.036 101.031,297.621 103.917 C 295.835 116.335,289.236 122.581,275.483 124.869 L 273.250 125.240 238.875 125.291 L 204.500 125.342 204.500 111.589 L 204.500 97.837 234.208 97.793 L 263.917 97.750 264.678 97.398 C 267.130 96.263,267.167 96.084,267.167 85.153 L 267.167 76.178 246.042 76.116 C 222.894 76.049,224.664 76.120,221.000 75.118 C 213.547 73.081,208.298 66.858,206.823 58.312 C 206.358 55.617,206.409 23.573,206.883 20.833 C 209.093 8.055,217.169 1.276,231.500 0.171 C 232.371 0.103,222.978 0.038,210.626 0.024 L 188.169 -0.000 188.126 13.792 L 188.083 27.583 159.458 27.625 L 130.833 27.668 130.833 38.417 L 130.833 49.167 156.417 49.167 L 182.000 49.167 182.000 62.667 L 182.000 76.167 156.417 76.167 L 130.833 76.167 130.833 87.000 L 130.833 97.833 160.417 97.833 L 190.000 97.833 190.000 111.667 L 190.000 125.501 145.375 125.459 L 100.750 125.417 100.708 62.708 L 100.666 -0.000 93.166 -0.000 L 85.667 0.000 85.667 13.833 L 85.667 27.667 59.083 27.667 L 32.500 27.667 32.500 38.417 L 32.500 49.167 56.084 49.167 L 79.669 49.167 79.626 62.625 L 79.583 76.083 56.042 76.126 L 32.501 76.168 32.459 100.792 L 32.417 125.417 16.417 125.417 L 0.417 125.417 0.375 62.708 C 0.347 21.097,0.277 0.000,0.166 0.000 C 0.056 0.000,0.006 38.853,0.019 115.958 M399.293 166.208 L 399.335 179.667 199.793 179.625 L 0.250 179.583 0.207 166.352 C 0.176 156.712,0.216 153.058,0.353 152.893 C 0.511 152.702,31.966 152.673,199.895 152.708 L 399.250 152.750 399.293 166.208 M351.889 202.245 C 358.789 204.182,360.091 213.570,354.006 217.512 L 353.149 218.067 353.716 218.358 C 355.132 219.084,356.150 220.992,356.762 224.068 C 357.579 228.175,358.115 230.534,358.593 232.125 L 358.706 232.500 356.109 232.500 L 353.513 232.500 353.330 231.792 C 353.230 231.402,353.082 230.858,353.001 230.583 C 352.920 230.308,352.696 229.183,352.503 228.083 C 352.311 226.983,352.035 225.408,351.891 224.583 C 351.309 221.251,350.272 220.000,348.092 220.000 L 347.000 220.000 347.000 226.250 L 347.000 232.500 344.499 232.500 L 341.998 232.500 342.041 217.466 L 342.083 202.432 342.750 202.289 C 345.150 201.774,350.129 201.750,351.889 202.245 M58.796 204.292 L 58.750 206.583 56.042 206.629 L 53.333 206.675 53.333 219.587 L 53.333 232.500 50.833 232.500 L 48.333 232.500 48.333 219.583 L 48.333 206.667 45.684 206.667 C 43.423 206.667,43.021 206.628,42.934 206.403 C 42.797 206.044,42.806 202.250,42.944 202.111 C 43.006 202.050,46.608 202.000,50.949 202.000 L 58.843 202.000 58.796 204.292 M90.380 203.125 C 90.643 204.193,90.963 205.542,91.920 209.625 C 92.151 210.610,92.486 212.017,92.665 212.750 C 93.890 217.776,94.504 220.460,94.965 222.796 C 95.252 224.250,95.500 224.657,95.500 223.673 C 95.500 223.432,95.728 222.151,96.007 220.826 C 96.286 219.501,96.582 218.079,96.666 217.667 C 96.749 217.254,97.015 216.054,97.256 215.000 C 97.497 213.946,97.793 212.633,97.915 212.083 C 98.118 211.165,99.290 206.096,99.967 203.209 L 100.250 202.002 102.933 202.001 L 105.616 202.000 105.717 204.125 C 105.773 205.294,105.894 207.412,105.987 208.833 C 106.080 210.254,106.310 214.042,106.498 217.250 C 106.686 220.458,106.952 224.771,107.088 226.833 C 107.224 228.896,107.335 231.015,107.334 231.542 L 107.333 232.500 105.105 232.500 L 102.876 232.500 102.767 230.875 C 102.707 229.981,102.586 227.487,102.497 225.333 C 102.408 223.179,102.261 220.329,102.170 219.000 C 102.079 217.671,101.997 215.683,101.988 214.583 C 101.972 212.755,101.742 210.283,101.689 211.374 C 101.677 211.625,101.330 213.350,100.919 215.207 C 100.171 218.584,99.617 220.833,97.994 227.083 C 97.518 228.917,97.064 230.740,96.984 231.136 C 96.774 232.181,96.802 232.167,94.907 232.167 C 93.396 232.167,93.167 232.130,93.167 231.890 C 93.167 231.737,93.054 231.231,92.916 230.765 C 92.595 229.677,89.295 216.150,88.948 214.500 C 88.803 213.813,88.594 212.706,88.482 212.041 C 88.371 211.376,88.260 210.851,88.237 210.874 C 88.214 210.898,88.112 212.679,88.011 214.833 C 87.910 216.987,87.715 221.150,87.577 224.083 C 87.440 227.017,87.280 230.110,87.222 230.958 L 87.117 232.500 84.975 232.500 L 82.833 232.500 82.837 231.958 C 82.839 231.660,82.913 230.517,83.001 229.417 C 83.089 228.317,83.236 226.179,83.329 224.667 C 83.422 223.154,83.609 220.342,83.746 218.417 C 84.072 213.798,84.463 207.846,84.583 205.667 C 84.636 204.704,84.724 203.485,84.778 202.958 L 84.876 202.000 87.489 202.000 L 90.102 202.000 90.380 203.125 M123.235 202.292 C 123.336 202.616,123.928 205.453,124.165 206.750 C 124.248 207.208,124.509 208.483,124.743 209.583 C 125.360 212.476,126.352 217.294,126.511 218.167 C 126.586 218.579,126.807 219.629,127.002 220.500 C 127.197 221.371,127.462 222.646,127.591 223.333 C 127.842 224.671,128.231 226.557,128.910 229.726 C 129.143 230.812,129.333 231.881,129.333 232.101 L 129.333 232.500 126.958 232.499 L 124.583 232.499 124.272 230.958 C 124.101 230.110,123.898 229.079,123.822 228.667 C 123.684 227.920,123.240 225.756,123.078 225.042 C 122.992 224.658,117.336 224.424,117.107 224.795 C 117.064 224.865,116.711 226.459,116.324 228.337 C 115.938 230.214,115.585 231.919,115.541 232.125 C 115.452 232.541,110.667 232.738,110.667 232.326 C 110.667 232.230,110.775 231.686,110.907 231.118 C 111.040 230.549,111.269 229.521,111.417 228.833 C 111.865 226.754,112.336 224.640,112.586 223.583 C 112.789 222.726,114.100 216.848,115.178 211.958 C 115.355 211.156,115.658 209.806,115.850 208.958 C 116.043 208.110,116.265 207.053,116.343 206.608 C 116.421 206.164,116.558 205.564,116.647 205.275 C 116.736 204.986,116.938 204.131,117.095 203.375 L 117.382 202.000 120.263 202.000 C 122.861 202.000,123.153 202.029,123.235 202.292 M145.463 204.292 L 145.417 206.583 142.708 206.629 L 140.000 206.675 140.000 219.587 L 140.000 232.500 137.417 232.500 L 134.833 232.500 134.833 219.588 L 134.833 206.675 132.208 206.629 L 129.583 206.583 129.537 204.292 L 129.491 202.000 137.500 202.000 L 145.509 202.000 145.463 204.292 M154.333 217.250 L 154.333 232.500 151.833 232.500 L 149.333 232.500 149.333 217.250 L 149.333 202.000 151.833 202.000 L 154.333 202.000 154.333 217.250 M187.676 203.667 C 188.433 205.543,191.443 213.164,191.758 214.000 C 191.878 214.321,192.122 214.958,192.299 215.417 C 192.818 216.758,195.025 222.689,195.276 223.417 C 195.487 224.028,195.499 223.903,195.413 221.917 C 195.163 216.102,195.012 210.338,195.006 206.375 L 195.000 202.000 197.250 202.000 L 199.500 202.000 199.500 217.250 L 199.500 232.500 197.192 232.500 L 194.884 232.500 194.616 231.875 C 192.767 227.568,187.921 214.873,187.074 212.119 C 186.826 211.313,186.613 210.676,186.601 210.702 C 186.589 210.728,186.627 212.137,186.687 213.833 C 186.746 215.529,186.803 220.423,186.814 224.708 L 186.833 232.500 184.583 232.500 L 182.333 232.500 182.333 217.245 L 182.333 201.991 184.685 202.037 L 187.038 202.083 187.676 203.667 M237.333 217.250 L 237.333 232.500 234.833 232.500 L 232.333 232.500 232.333 217.250 L 232.333 202.000 234.833 202.000 L 237.333 202.000 237.333 217.250 M257.296 204.292 L 257.250 206.583 254.542 206.629 L 251.833 206.675 251.833 219.587 L 251.833 232.500 249.333 232.500 L 246.833 232.500 246.833 219.587 L 246.833 206.675 244.125 206.629 L 241.417 206.583 241.370 204.292 L 241.324 202.000 249.333 202.000 L 257.343 202.000 257.296 204.292 M295.833 204.167 L 295.833 206.333 292.000 206.333 L 288.167 206.333 288.167 210.417 L 288.167 214.500 291.750 214.500 L 295.333 214.500 295.333 216.583 L 295.333 218.667 291.750 218.667 L 288.167 218.667 288.167 223.414 L 288.167 228.161 292.208 228.205 L 296.250 228.250 296.297 230.375 L 296.343 232.500 289.672 232.500 L 283.000 232.500 283.000 217.250 L 283.000 202.000 289.417 202.000 L 295.833 202.000 295.833 204.167 M305.865 202.709 C 306.020 203.098,306.570 204.504,307.087 205.833 C 308.411 209.240,309.107 211.008,309.845 212.847 C 310.197 213.726,310.747 215.151,311.066 216.014 C 311.386 216.877,311.923 218.296,312.260 219.167 C 312.597 220.037,313.129 221.463,313.442 222.333 L 314.012 223.917 313.925 221.750 C 313.876 220.558,313.790 215.627,313.732 210.792 L 313.628 202.000 315.814 202.000 L 318.000 202.000 318.000 217.250 L 318.000 232.500 315.706 232.500 L 313.411 232.500 311.112 226.708 C 307.258 216.998,306.784 215.744,305.590 212.083 L 305.154 210.750 305.244 213.417 C 305.294 214.883,305.383 219.777,305.443 224.292 L 305.552 232.500 303.276 232.500 L 301.000 232.500 301.000 217.250 L 301.000 202.000 303.292 202.001 L 305.583 202.001 305.865 202.709 M336.833 204.167 L 336.833 206.333 333.000 206.333 L 329.167 206.333 329.167 210.417 L 329.167 214.500 332.750 214.500 L 336.333 214.500 336.333 216.583 L 336.333 218.667 332.750 218.667 L 329.167 218.667 329.167 223.417 L 329.167 228.167 333.250 228.167 L 337.333 228.167 337.333 230.335 L 337.333 232.504 330.708 232.460 L 324.083 232.417 324.040 217.417 C 324.017 209.167,324.033 202.323,324.077 202.208 C 324.138 202.047,325.577 202.000,330.495 202.000 L 336.833 202.000 336.833 204.167 M347.125 205.927 C 347.056 205.998,347.000 208.293,347.000 211.028 L 347.000 216.000 348.134 216.000 C 352.050 216.000,354.263 210.578,351.723 207.207 C 350.975 206.213,347.727 205.309,347.125 205.927 M69.047 206.117 C 65.402 206.822,64.350 222.595,67.637 227.259 C 68.934 229.098,71.078 228.922,72.281 226.877 C 74.557 223.007,74.455 210.798,72.118 207.406 C 71.300 206.220,70.421 205.851,69.047 206.117 M167.571 206.152 C 163.313 207.986,163.128 226.076,167.345 228.256 C 169.437 229.338,171.149 227.668,172.049 223.667 C 172.596 221.234,172.582 212.995,172.026 210.668 C 171.164 207.059,169.464 205.336,167.571 206.152 M9.266 208.000 C 9.119 209.065,8.270 214.010,7.921 215.833 C 7.789 216.521,7.568 217.699,7.429 218.451 C 7.290 219.204,7.129 220.010,7.070 220.243 L 6.964 220.667 9.337 220.667 L 11.710 220.667 11.615 219.958 C 11.562 219.569,11.399 218.612,11.253 217.833 C 10.800 215.423,10.321 212.672,9.991 210.583 C 9.817 209.483,9.611 208.246,9.533 207.833 L 9.392 207.083 9.266 208.000 M120.005 207.667 C 120.002 207.896,119.887 208.721,119.748 209.500 C 119.610 210.279,119.380 211.592,119.238 212.417 C 118.932 214.189,118.034 218.913,117.740 220.292 L 117.660 220.667 120.060 220.667 L 122.460 220.667 122.326 219.958 C 122.196 219.273,121.732 216.669,121.248 213.917 C 121.119 213.183,120.900 211.946,120.760 211.167 C 120.620 210.387,120.457 209.300,120.397 208.750 C 120.279 207.664,120.014 206.931,120.005 207.667 M219.167 217.583 L 219.167 222.333 214.333 222.333 L 209.500 222.333 209.500 217.583 L 209.500 212.833 214.333 212.833 L 219.167 212.833 219.167 217.583 M272.667 217.583 L 272.667 222.333 267.833 222.333 L 263.000 222.333 263.000 217.583 L 263.000 212.833 267.833 212.833 L 272.667 212.833 272.667 217.583 " stroke="none" fill="#EAEDF2" fill-rule="evenodd">
</path>
<path id="path3" d="M288.913 13.667 C 288.913 21.229,288.933 24.323,288.958 20.542 C 288.983 16.760,288.983 10.573,288.958 6.792 C 288.933 3.010,288.913 6.104,288.913 13.667 M230.708 0.282 C 230.869 0.323,231.131 0.323,231.292 0.282 C 231.452 0.240,231.321 0.205,231.000 0.205 C 230.679 0.205,230.548 0.240,230.708 0.282 M206.580 40.333 C 206.580 49.454,206.600 53.185,206.625 48.625 C 206.650 44.065,206.650 36.602,206.625 32.042 C 206.600 27.481,206.580 31.212,206.580 40.333 M32.374 38.375 L 32.414 49.250 32.458 38.459 L 32.502 27.668 59.126 27.625 L 85.750 27.582 59.042 27.541 L 32.333 27.500 32.374 38.375 M145.138 27.625 C 153.052 27.649,165.952 27.649,173.805 27.625 C 181.658 27.601,175.183 27.581,159.417 27.581 C 143.650 27.581,137.225 27.601,145.138 27.625 M334.916 76.417 C 334.916 103.367,334.935 114.416,334.958 100.972 C 334.982 87.527,334.982 65.477,334.958 51.972 C 334.935 38.466,334.916 49.467,334.916 76.417 M79.541 62.541 L 79.500 75.999 55.958 76.041 L 32.417 76.083 32.374 100.707 L 32.332 125.332 16.458 125.375 L 0.583 125.419 16.500 125.418 L 32.417 125.417 32.459 100.792 L 32.501 76.167 56.006 76.167 C 74.656 76.167,79.527 76.124,79.590 75.958 C 79.634 75.844,79.650 69.750,79.625 62.417 L 79.581 49.083 79.541 62.541 M239.802 49.291 C 241.206 49.319,243.456 49.319,244.802 49.291 C 246.148 49.263,245.000 49.240,242.250 49.241 C 239.500 49.241,238.398 49.263,239.802 49.291 M297.913 84.833 C 297.913 93.496,297.934 97.040,297.958 92.708 C 297.983 88.377,297.983 81.290,297.958 76.958 C 297.934 72.627,297.913 76.171,297.913 84.833 M143.529 76.125 C 150.557 76.149,162.107 76.149,169.195 76.125 C 176.284 76.101,170.533 76.081,156.417 76.081 C 142.300 76.081,136.500 76.101,143.529 76.125 M226.458 76.118 C 226.665 76.157,227.002 76.157,227.208 76.118 C 227.415 76.078,227.246 76.045,226.833 76.045 C 226.421 76.045,226.252 76.078,226.458 76.118 M247.304 76.125 C 251.000 76.150,257.000 76.150,260.637 76.125 C 264.274 76.100,261.250 76.079,253.917 76.079 C 246.583 76.079,243.608 76.100,247.304 76.125 M291.240 117.875 L 290.750 118.417 291.292 117.927 C 291.797 117.471,291.910 117.333,291.781 117.333 C 291.752 117.333,291.509 117.577,291.240 117.875 M270.875 125.282 C 271.035 125.323,271.298 125.323,271.458 125.282 C 271.619 125.240,271.487 125.205,271.167 125.205 C 270.846 125.205,270.715 125.240,270.875 125.282 M123.138 125.458 C 135.452 125.482,155.552 125.482,167.805 125.458 C 180.058 125.435,169.983 125.415,145.417 125.415 C 120.850 125.415,110.825 125.435,123.138 125.458 M100.125 152.792 C 154.965 152.815,244.702 152.815,299.542 152.792 C 354.381 152.769,309.512 152.750,199.833 152.750 C 90.154 152.750,45.285 152.769,100.125 152.792 M0.246 166.250 C 0.246 173.583,0.267 176.559,0.292 172.863 C 0.317 169.166,0.317 163.166,0.292 159.529 C 0.267 155.892,0.246 158.917,0.246 166.250 M373.461 201.787 C 373.761 201.825,374.211 201.824,374.461 201.786 C 374.712 201.748,374.467 201.717,373.917 201.718 C 373.367 201.719,373.162 201.750,373.461 201.787 M346.458 201.957 C 347.123 201.989,348.210 201.989,348.875 201.957 C 349.540 201.925,348.996 201.900,347.667 201.900 C 346.337 201.900,345.794 201.925,346.458 201.957 M22.245 212.667 C 22.245 218.579,22.266 220.998,22.292 218.042 C 22.317 215.085,22.317 210.248,22.292 207.292 C 22.266 204.335,22.245 206.754,22.245 212.667 M105.539 202.500 C 105.539 202.821,105.573 202.952,105.615 202.792 C 105.657 202.631,105.657 202.369,105.615 202.208 C 105.573 202.048,105.539 202.179,105.539 202.500 M145.370 204.204 L 145.333 206.492 142.625 206.538 L 139.917 206.583 139.915 219.500 L 139.914 232.417 139.958 219.542 L 140.002 206.667 142.673 206.667 C 145.812 206.667,145.527 206.931,145.458 204.075 L 145.406 201.917 145.370 204.204 M149.413 217.250 C 149.413 225.683,149.433 229.158,149.458 224.971 C 149.483 220.784,149.483 213.884,149.458 209.638 C 149.434 205.391,149.413 208.817,149.413 217.250 M182.413 217.250 C 182.413 225.683,182.433 229.158,182.458 224.971 C 182.483 220.784,182.483 213.884,182.458 209.638 C 182.434 205.391,182.413 208.817,182.413 217.250 M195.074 207.167 C 195.074 210.054,195.097 211.235,195.125 209.792 C 195.152 208.348,195.152 205.985,195.125 204.542 C 195.097 203.098,195.074 204.279,195.074 207.167 M283.080 217.250 C 283.080 225.683,283.100 229.158,283.125 224.971 C 283.150 220.784,283.150 213.884,283.125 209.638 C 283.100 205.391,283.080 208.817,283.080 217.250 M295.732 204.167 C 295.732 205.404,295.758 205.910,295.790 205.292 C 295.822 204.673,295.822 203.660,295.790 203.042 C 295.758 202.423,295.732 202.929,295.732 204.167 M336.732 204.167 C 336.732 205.404,336.758 205.910,336.790 205.292 C 336.822 204.673,336.822 203.660,336.790 203.042 C 336.758 202.423,336.732 202.929,336.732 204.167 M42.898 204.250 C 42.898 205.442,42.925 205.907,42.957 205.285 C 42.989 204.662,42.989 203.687,42.957 203.118 C 42.924 202.549,42.898 203.058,42.898 204.250 M324.080 217.250 C 324.080 225.592,324.100 228.980,324.125 224.779 C 324.150 220.578,324.150 213.753,324.125 209.612 C 324.100 205.471,324.080 208.908,324.080 217.250 M75.167 203.750 C 75.478 204.071,75.770 204.333,75.815 204.333 C 75.861 204.333,75.644 204.071,75.333 203.750 C 75.022 203.429,74.730 203.167,74.685 203.167 C 74.639 203.167,74.856 203.429,75.167 203.750 M173.500 203.385 C 173.500 203.414,173.744 203.658,174.042 203.927 L 174.583 204.417 174.094 203.875 C 173.638 203.370,173.500 203.257,173.500 203.385 M163.073 204.042 L 162.583 204.583 163.125 204.094 C 163.423 203.825,163.667 203.581,163.667 203.552 C 163.667 203.423,163.529 203.537,163.073 204.042 M355.500 204.250 C 355.811 204.571,356.103 204.833,356.149 204.833 C 356.195 204.833,355.978 204.571,355.667 204.250 C 355.356 203.929,355.064 203.667,355.018 203.667 C 354.972 203.667,355.189 203.929,355.500 204.250 M84.548 206.250 C 84.549 206.708,84.581 206.876,84.620 206.623 C 84.658 206.369,84.657 205.994,84.617 205.789 C 84.578 205.584,84.546 205.792,84.548 206.250 M346.909 206.044 C 346.864 206.159,346.848 208.465,346.872 211.169 L 346.917 216.083 347.750 216.096 L 348.583 216.109 347.787 216.046 L 346.991 215.982 347.037 210.908 C 347.062 208.117,347.062 205.833,347.036 205.833 C 347.011 205.833,346.953 205.928,346.909 206.044 M67.906 206.875 L 67.417 207.417 67.958 206.927 C 68.463 206.471,68.577 206.333,68.448 206.333 C 68.419 206.333,68.175 206.577,67.906 206.875 M288.079 210.458 L 288.083 214.583 291.667 214.588 L 295.250 214.593 291.711 214.543 L 288.172 214.494 288.123 210.413 L 288.074 206.333 288.079 210.458 M329.079 210.458 L 329.083 214.583 332.667 214.588 L 336.250 214.593 332.711 214.543 L 329.172 214.494 329.123 210.413 L 329.074 206.333 329.079 210.458 M44.292 206.624 C 45.048 206.655,46.285 206.655,47.042 206.624 C 47.798 206.593,47.179 206.568,45.667 206.568 C 44.154 206.568,43.535 206.593,44.292 206.624 M54.625 206.624 C 55.381 206.655,56.619 206.655,57.375 206.624 C 58.131 206.593,57.512 206.568,56.000 206.568 C 54.487 206.568,53.869 206.593,54.625 206.624 M132.207 206.625 L 134.831 206.675 134.875 219.629 L 134.919 232.583 134.959 219.542 L 135.000 206.500 132.292 206.537 L 129.583 206.574 132.207 206.625 M242.792 206.624 C 243.548 206.655,244.785 206.655,245.542 206.624 C 246.298 206.593,245.679 206.568,244.167 206.568 C 242.654 206.568,242.035 206.593,242.792 206.624 M253.125 206.624 C 253.881 206.655,255.119 206.655,255.875 206.624 C 256.631 206.593,256.012 206.568,254.500 206.568 C 252.987 206.568,252.369 206.593,253.125 206.624 M357.714 210.250 C 357.716 210.708,357.748 210.876,357.786 210.623 C 357.825 210.369,357.824 209.994,357.784 209.789 C 357.744 209.584,357.713 209.792,357.714 210.250 M106.042 210.583 C 106.044 210.950,106.078 211.080,106.118 210.873 C 106.158 210.666,106.156 210.366,106.115 210.206 C 106.073 210.047,106.040 210.217,106.042 210.583 M101.810 210.542 C 101.776 210.748,101.794 211.254,101.849 211.667 C 101.941 212.351,101.952 212.318,101.975 211.292 C 102.000 210.167,101.927 209.835,101.810 210.542 M352.709 210.750 C 352.711 211.117,352.745 211.247,352.785 211.040 C 352.824 210.832,352.823 210.532,352.781 210.373 C 352.739 210.214,352.707 210.383,352.709 210.750 M305.003 210.875 C 305.001 211.219,305.029 211.500,305.064 211.500 C 305.208 211.500,305.273 210.672,305.144 210.469 C 305.055 210.329,305.004 210.477,305.003 210.875 M88.019 211.792 C 88.041 213.225,88.115 213.127,88.209 211.542 C 88.243 210.969,88.210 210.500,88.136 210.500 C 88.061 210.500,88.009 211.081,88.019 211.792 M186.567 211.066 C 186.518 211.194,186.503 211.587,186.535 211.941 C 186.587 212.536,186.597 212.519,186.671 211.708 C 186.752 210.815,186.725 210.653,186.567 211.066 M84.045 213.833 C 84.045 214.246,84.078 214.415,84.118 214.208 C 84.157 214.002,84.157 213.665,84.118 213.458 C 84.078 213.252,84.045 213.421,84.045 213.833 M65.712 214.167 C 65.712 214.579,65.745 214.748,65.784 214.542 C 65.824 214.335,65.824 213.998,65.784 213.792 C 65.745 213.585,65.712 213.754,65.712 214.167 M159.205 214.500 C 159.205 214.821,159.240 214.952,159.282 214.792 C 159.323 214.631,159.323 214.369,159.282 214.208 C 159.240 214.048,159.205 214.179,159.205 214.500 M305.205 215.167 C 305.205 215.487,305.240 215.619,305.282 215.458 C 305.323 215.298,305.323 215.035,305.282 214.875 C 305.240 214.715,305.205 214.846,305.205 215.167 M73.872 215.500 C 73.872 215.821,73.906 215.952,73.948 215.792 C 73.990 215.631,73.990 215.369,73.948 215.208 C 73.906 215.048,73.872 215.179,73.872 215.500 M177.726 216.917 C 177.725 217.742,177.754 218.100,177.788 217.713 C 177.823 217.327,177.824 216.652,177.789 216.213 C 177.755 215.775,177.726 216.092,177.726 216.917 M172.557 217.083 C 172.558 217.817,172.587 218.096,172.622 217.704 C 172.657 217.312,172.657 216.712,172.621 216.371 C 172.585 216.029,172.557 216.350,172.557 217.083 M102.048 216.750 C 102.049 217.208,102.081 217.376,102.120 217.123 C 102.158 216.869,102.157 216.494,102.117 216.289 C 102.078 216.084,102.046 216.292,102.048 216.750 M79.048 216.917 C 79.049 217.375,79.081 217.543,79.120 217.289 C 79.158 217.036,79.157 216.661,79.117 216.456 C 79.078 216.251,79.046 216.458,79.048 216.917 M186.709 216.750 C 186.711 217.117,186.745 217.247,186.785 217.040 C 186.824 216.832,186.823 216.532,186.781 216.373 C 186.739 216.214,186.707 216.383,186.709 216.750 M73.872 218.833 C 73.872 219.154,73.906 219.285,73.948 219.125 C 73.990 218.965,73.990 218.702,73.948 218.542 C 73.906 218.381,73.872 218.512,73.872 218.833 M106.539 218.833 C 106.539 219.154,106.573 219.285,106.615 219.125 C 106.657 218.965,106.657 218.702,106.615 218.542 C 106.573 218.381,106.539 218.512,106.539 218.833 M288.079 223.458 L 288.083 228.250 292.120 228.295 L 296.157 228.339 296.211 230.378 L 296.265 232.417 296.257 230.333 L 296.250 228.250 292.211 228.205 L 288.172 228.161 288.124 223.414 L 288.076 218.667 288.079 223.458 M329.079 223.500 L 329.083 228.250 333.208 228.254 L 337.333 228.259 333.253 228.210 L 329.172 228.161 329.124 223.455 L 329.075 218.750 329.079 223.500 M87.712 220.000 C 87.712 220.412,87.745 220.581,87.784 220.375 C 87.824 220.169,87.824 219.831,87.784 219.625 C 87.745 219.419,87.712 219.588,87.712 220.000 M65.712 220.333 C 65.712 220.746,65.745 220.915,65.784 220.708 C 65.824 220.502,65.824 220.165,65.784 219.958 C 65.745 219.752,65.712 219.921,65.712 220.333 M159.205 220.167 C 159.205 220.487,159.240 220.619,159.282 220.458 C 159.323 220.298,159.323 220.035,159.282 219.875 C 159.240 219.715,159.205 219.846,159.205 220.167 M346.909 220.042 C 346.865 220.157,346.850 223.026,346.875 226.417 L 346.921 232.583 346.960 226.300 L 347.000 220.017 347.958 219.956 L 348.917 219.896 347.953 219.865 C 347.310 219.844,346.963 219.903,346.909 220.042 M372.755 219.955 L 374.344 220.012 374.297 224.248 C 374.271 226.578,374.308 228.426,374.378 228.356 C 374.448 228.285,374.486 226.357,374.461 224.072 L 374.417 219.917 372.791 219.907 L 371.166 219.898 372.755 219.955 M11.667 220.472 C 11.667 220.610,10.969 220.677,9.292 220.703 L 6.917 220.740 9.237 220.791 C 11.387 220.839,12.114 220.725,11.781 220.392 C 11.718 220.329,11.667 220.365,11.667 220.472 M305.409 226.417 C 305.409 229.808,305.431 231.172,305.458 229.447 C 305.485 227.723,305.485 224.948,305.458 223.281 C 305.431 221.614,305.409 223.025,305.409 226.417 M118.883 220.791 C 119.597 220.822,120.722 220.822,121.383 220.790 C 122.043 220.759,121.458 220.733,120.083 220.733 C 118.708 220.734,118.168 220.759,118.883 220.791 M106.717 221.833 C 106.717 222.338,106.748 222.544,106.786 222.292 C 106.824 222.040,106.824 221.627,106.786 221.375 C 106.748 221.123,106.717 221.329,106.717 221.833 M314.048 223.417 C 314.049 223.875,314.081 224.043,314.120 223.789 C 314.158 223.536,314.157 223.161,314.117 222.956 C 314.078 222.751,314.046 222.958,314.048 223.417 M87.545 223.500 C 87.545 223.912,87.578 224.081,87.618 223.875 C 87.657 223.669,87.657 223.331,87.618 223.125 C 87.578 222.919,87.545 223.088,87.545 223.500 M83.372 223.833 C 83.372 224.154,83.406 224.285,83.448 224.125 C 83.490 223.965,83.490 223.702,83.448 223.542 C 83.406 223.381,83.372 223.512,83.372 223.833 M7.792 224.624 C 8.640 224.654,10.027 224.654,10.875 224.624 C 11.723 224.594,11.029 224.569,9.333 224.569 C 7.638 224.569,6.944 224.594,7.792 224.624 M117.109 224.625 C 117.066 224.694,117.943 224.730,119.057 224.707 C 122.736 224.628,123.125 224.565,120.135 224.532 C 118.513 224.514,117.151 224.556,117.109 224.625 M102.552 226.583 C 102.553 227.133,102.584 227.338,102.621 227.039 C 102.658 226.739,102.657 226.289,102.619 226.039 C 102.581 225.788,102.551 226.033,102.552 226.583 M83.039 228.667 C 83.039 228.987,83.073 229.119,83.115 228.958 C 83.157 228.798,83.157 228.535,83.115 228.375 C 83.073 228.215,83.039 228.346,83.039 228.667 M107.212 230.167 C 107.212 230.579,107.245 230.748,107.284 230.542 C 107.324 230.335,107.324 229.998,107.284 229.792 C 107.245 229.585,107.212 229.754,107.212 230.167 M173.906 230.542 L 173.417 231.083 173.958 230.594 C 174.463 230.138,174.577 230.000,174.448 230.000 C 174.419 230.000,174.175 230.244,173.906 230.542 M163.000 230.750 C 163.311 231.071,163.603 231.333,163.649 231.333 C 163.695 231.333,163.478 231.071,163.167 230.750 C 162.856 230.429,162.564 230.167,162.518 230.167 C 162.472 230.167,162.689 230.429,163.000 230.750 M82.879 231.333 C 82.879 231.746,82.911 231.915,82.951 231.708 C 82.991 231.502,82.991 231.165,82.951 230.958 C 82.911 230.752,82.879 230.921,82.879 231.333 " stroke="none" fill="#b9b8c7" fill-rule="evenodd">
</path>
<path id="path4" d="M0.416 62.667 C 0.416 97.179,0.435 111.298,0.458 94.042 C 0.482 76.785,0.482 48.548,0.458 31.292 C 0.435 14.035,0.416 28.154,0.416 62.667 M100.749 62.667 C 100.749 97.179,100.768 111.298,100.792 94.042 C 100.815 76.785,100.815 48.548,100.792 31.292 C 100.768 14.035,100.749 28.154,100.749 62.667 M188.080 13.750 C 188.080 21.358,188.100 24.495,188.125 20.721 C 188.150 16.946,188.150 10.721,188.125 6.887 C 188.100 3.054,188.080 6.142,188.080 13.750 M399.413 13.667 C 399.413 21.229,399.433 24.323,399.458 20.542 C 399.483 16.760,399.483 10.573,399.458 6.792 C 399.433 3.010,399.413 6.104,399.413 13.667 M213.167 7.417 C 212.762 7.829,212.468 8.167,212.514 8.167 C 212.560 8.167,212.928 7.829,213.333 7.417 C 213.738 7.004,214.032 6.667,213.986 6.667 C 213.940 6.667,213.572 7.004,213.167 7.417 M206.709 23.250 C 206.711 23.617,206.745 23.747,206.785 23.540 C 206.824 23.332,206.823 23.032,206.781 22.873 C 206.739 22.714,206.707 22.883,206.709 23.250 M252.971 27.458 C 259.601 27.482,270.401 27.482,276.971 27.458 C 283.541 27.434,278.117 27.414,264.917 27.414 C 251.717 27.414,246.341 27.434,252.971 27.458 M237.244 40.333 C 237.244 45.329,237.266 47.373,237.292 44.875 C 237.317 42.377,237.317 38.290,237.292 35.792 C 237.266 33.294,237.244 35.337,237.244 40.333 M253.221 49.292 C 256.596 49.317,262.071 49.317,265.387 49.292 C 268.703 49.266,265.942 49.246,259.250 49.246 C 252.558 49.246,249.845 49.266,253.221 49.292 M276.627 49.285 C 276.834 49.324,277.134 49.323,277.294 49.281 C 277.453 49.239,277.283 49.207,276.917 49.209 C 276.550 49.211,276.420 49.245,276.627 49.285 M291.667 55.083 C 292.165 55.587,292.609 56.000,292.655 56.000 C 292.701 56.000,292.331 55.587,291.833 55.083 C 291.335 54.579,290.891 54.167,290.845 54.167 C 290.799 54.167,291.169 54.579,291.667 55.083 M212.583 70.167 C 213.035 70.625,213.442 71.000,213.487 71.000 C 213.533 71.000,213.201 70.625,212.750 70.167 C 212.299 69.708,211.892 69.333,211.846 69.333 C 211.800 69.333,212.132 69.708,212.583 70.167 M230.697 76.125 C 232.502 76.152,235.502 76.152,237.364 76.125 C 239.226 76.098,237.750 76.076,234.083 76.076 C 230.417 76.076,228.893 76.098,230.697 76.125 M145.638 97.958 C 153.827 97.982,167.177 97.982,175.305 97.958 C 183.433 97.934,176.733 97.915,160.417 97.915 C 144.100 97.915,137.450 97.934,145.638 97.958 M204.580 111.667 C 204.580 119.229,204.600 122.323,204.625 118.542 C 204.650 114.760,204.650 108.573,204.625 104.792 C 204.600 101.010,204.580 104.104,204.580 111.667 M269.375 125.286 C 269.627 125.324,270.040 125.324,270.292 125.286 C 270.544 125.248,270.337 125.217,269.833 125.217 C 269.329 125.217,269.123 125.248,269.375 125.286 M343.221 125.458 C 347.788 125.483,355.213 125.483,359.721 125.458 C 364.229 125.434,360.492 125.413,351.417 125.413 C 342.342 125.413,338.654 125.434,343.221 125.458 M6.775 202.125 C 6.733 202.194,7.572 202.230,8.640 202.206 C 12.225 202.126,12.605 202.064,9.718 202.032 C 8.142 202.014,6.818 202.056,6.775 202.125 M23.549 202.124 C 24.264 202.155,25.389 202.155,26.049 202.124 C 26.710 202.092,26.125 202.066,24.750 202.067 C 23.375 202.067,22.835 202.093,23.549 202.124 M36.374 202.122 L 38.831 202.176 38.876 212.379 L 38.920 222.583 38.919 212.333 L 38.917 202.083 36.417 202.076 L 33.917 202.069 36.374 202.122 M50.787 202.124 L 58.657 202.170 58.711 204.377 L 58.766 206.583 58.758 204.333 L 58.750 202.083 50.833 202.081 L 42.917 202.078 50.787 202.124 M84.836 202.292 C 84.838 202.509,84.873 202.528,84.976 202.366 C 85.082 202.200,85.700 202.161,87.625 202.200 C 89.006 202.227,90.101 202.194,90.058 202.125 C 89.871 201.823,84.833 201.984,84.836 202.292 M101.633 202.124 C 102.394 202.155,103.594 202.155,104.300 202.124 C 105.006 202.093,104.383 202.067,102.917 202.067 C 101.450 202.068,100.872 202.093,101.633 202.124 M117.442 202.125 C 117.399 202.194,118.239 202.230,119.307 202.206 C 122.892 202.126,123.272 202.064,120.385 202.032 C 118.809 202.014,117.485 202.056,117.442 202.125 M129.536 204.292 L 129.573 206.583 129.625 204.377 L 129.676 202.170 137.546 202.125 L 145.417 202.080 137.458 202.040 L 129.500 202.000 129.536 204.292 M150.716 202.124 C 151.431 202.155,152.556 202.155,153.216 202.124 C 153.876 202.092,153.292 202.066,151.917 202.067 C 150.542 202.067,150.001 202.093,150.716 202.124 M183.534 202.123 C 184.149 202.155,185.199 202.156,185.868 202.124 C 186.536 202.092,186.033 202.066,184.750 202.066 C 183.467 202.065,182.920 202.091,183.534 202.123 M197.207 202.125 L 199.332 202.177 199.375 217.380 L 199.418 232.583 199.459 217.292 L 199.500 202.000 197.292 202.036 L 195.083 202.072 197.207 202.125 M234.707 202.122 L 237.165 202.176 237.209 217.338 L 237.253 232.500 237.251 217.292 L 237.250 202.083 234.750 202.076 L 232.250 202.069 234.707 202.122 M241.370 204.292 L 241.406 206.583 241.458 204.375 L 241.510 202.167 249.333 202.167 L 257.157 202.167 257.209 204.375 L 257.261 206.583 257.297 204.292 L 257.333 202.000 249.333 202.000 L 241.333 202.000 241.370 204.292 M286.303 202.125 C 288.073 202.152,290.923 202.152,292.636 202.125 C 294.349 202.098,292.900 202.076,289.417 202.076 C 285.933 202.076,284.532 202.098,286.303 202.125 M301.667 202.111 C 303.456 202.232,305.630 202.240,305.558 202.125 C 305.515 202.056,304.454 202.014,303.198 202.030 C 301.943 202.047,301.254 202.083,301.667 202.111 M313.706 209.125 L 313.746 216.250 313.792 209.213 L 313.837 202.177 315.960 202.125 L 318.083 202.072 315.875 202.036 L 313.667 202.000 313.706 209.125 M327.303 202.125 C 329.073 202.152,331.923 202.152,333.636 202.125 C 335.349 202.098,333.900 202.076,330.417 202.076 C 326.933 202.076,325.532 202.098,327.303 202.125 M382.966 202.124 C 383.727 202.155,384.927 202.155,385.633 202.124 C 386.339 202.093,385.717 202.067,384.250 202.067 C 382.783 202.068,382.206 202.093,382.966 202.124 M394.942 202.125 C 394.900 202.194,396.021 202.250,397.433 202.250 C 398.845 202.250,400.000 202.194,400.000 202.125 C 400.000 202.056,398.879 202.000,397.510 202.000 C 396.140 202.000,394.985 202.056,394.942 202.125 M342.080 217.500 C 342.080 225.796,342.100 229.190,342.125 225.042 C 342.150 220.894,342.150 214.106,342.125 209.958 C 342.100 205.810,342.080 209.204,342.080 217.500 M105.539 203.500 C 105.539 203.821,105.573 203.952,105.615 203.792 C 105.657 203.631,105.657 203.369,105.615 203.208 C 105.573 203.048,105.539 203.179,105.539 203.500 M84.714 204.750 C 84.716 205.208,84.748 205.376,84.786 205.123 C 84.825 204.869,84.824 204.494,84.784 204.289 C 84.744 204.084,84.713 204.292,84.714 204.750 M348.127 205.785 C 348.334 205.824,348.634 205.823,348.794 205.781 C 348.953 205.739,348.783 205.707,348.417 205.709 C 348.050 205.711,347.920 205.745,348.127 205.785 M69.542 205.948 C 69.702 205.990,69.965 205.990,70.125 205.948 C 70.285 205.906,70.154 205.872,69.833 205.872 C 69.512 205.872,69.381 205.906,69.542 205.948 M168.208 205.948 C 168.369 205.990,168.631 205.990,168.792 205.948 C 168.952 205.906,168.821 205.872,168.500 205.872 C 168.179 205.872,168.048 205.906,168.208 205.948 M48.413 219.500 C 48.413 226.696,48.433 229.640,48.458 226.042 C 48.483 222.444,48.483 216.556,48.458 212.958 C 48.433 209.360,48.413 212.304,48.413 219.500 M251.746 219.417 C 251.746 226.567,251.767 229.467,251.792 225.863 C 251.817 222.258,251.817 216.408,251.792 212.863 C 251.767 209.317,251.746 212.267,251.746 219.417 M105.872 208.500 C 105.872 208.821,105.906 208.952,105.948 208.792 C 105.990 208.631,105.990 208.369,105.948 208.208 C 105.906 208.048,105.872 208.179,105.872 208.500 M88.000 210.250 C 88.000 210.387,88.075 210.500,88.167 210.500 C 88.258 210.500,88.333 210.387,88.333 210.250 C 88.333 210.112,88.258 210.000,88.167 210.000 C 88.075 210.000,88.000 210.112,88.000 210.250 M106.042 211.750 C 106.044 212.117,106.078 212.247,106.118 212.040 C 106.158 211.832,106.156 211.532,106.115 211.373 C 106.073 211.214,106.040 211.383,106.042 211.750 M84.212 212.000 C 84.212 212.412,84.245 212.581,84.284 212.375 C 84.324 212.169,84.324 211.831,84.284 211.625 C 84.245 211.419,84.212 211.588,84.212 212.000 M305.045 212.167 C 305.045 212.579,305.078 212.748,305.118 212.542 C 305.157 212.335,305.157 211.998,305.118 211.792 C 305.078 211.585,305.045 211.754,305.045 212.167 M102.063 214.167 C 102.063 215.221,102.090 215.652,102.123 215.125 C 102.156 214.598,102.156 213.735,102.123 213.208 C 102.090 212.681,102.063 213.112,102.063 214.167 M186.548 213.250 C 186.549 213.708,186.581 213.876,186.620 213.623 C 186.658 213.369,186.657 212.994,186.617 212.789 C 186.578 212.584,186.546 212.792,186.548 213.250 M209.574 217.583 C 209.574 220.242,209.597 221.306,209.625 219.948 C 209.653 218.590,209.653 216.415,209.625 215.115 C 209.596 213.814,209.573 214.925,209.574 217.583 M219.074 217.583 C 219.074 220.242,219.097 221.306,219.125 219.948 C 219.153 218.590,219.153 216.415,219.125 215.115 C 219.096 213.814,219.073 214.925,219.074 217.583 M272.574 217.583 C 272.574 220.242,272.597 221.306,272.625 219.948 C 272.653 218.590,272.653 216.415,272.625 215.115 C 272.596 213.814,272.573 214.925,272.574 217.583 M78.872 214.167 C 78.872 214.487,78.906 214.619,78.948 214.458 C 78.990 214.298,78.990 214.035,78.948 213.875 C 78.906 213.715,78.872 213.846,78.872 214.167 M73.872 214.500 C 73.872 214.821,73.906 214.952,73.948 214.792 C 73.990 214.631,73.990 214.369,73.948 214.208 C 73.906 214.048,73.872 214.179,73.872 214.500 M106.205 214.500 C 106.205 214.821,106.240 214.952,106.282 214.792 C 106.323 214.631,106.323 214.369,106.282 214.208 C 106.240 214.048,106.205 214.179,106.205 214.500 M172.552 214.917 C 172.553 215.467,172.584 215.672,172.621 215.372 C 172.658 215.072,172.657 214.622,172.619 214.372 C 172.581 214.122,172.551 214.367,172.552 214.917 M195.228 215.917 C 195.228 216.833,195.256 217.187,195.290 216.703 C 195.324 216.218,195.323 215.468,195.289 215.036 C 195.255 214.604,195.227 215.000,195.228 215.917 M295.230 216.583 C 295.231 217.683,295.258 218.112,295.290 217.535 C 295.323 216.959,295.323 216.059,295.290 215.535 C 295.257 215.012,295.230 215.483,295.230 216.583 M336.230 216.583 C 336.231 217.683,336.258 218.112,336.290 217.535 C 336.323 216.959,336.323 216.059,336.290 215.535 C 336.257 215.012,336.230 215.483,336.230 216.583 M65.567 217.250 C 65.567 218.625,65.593 219.165,65.624 218.451 C 65.655 217.736,65.655 216.611,65.624 215.951 C 65.592 215.290,65.566 215.875,65.567 217.250 M60.566 217.333 C 60.566 218.662,60.592 219.206,60.624 218.542 C 60.655 217.877,60.655 216.790,60.624 216.125 C 60.592 215.460,60.566 216.004,60.566 217.333 M159.214 215.750 C 159.216 216.208,159.248 216.376,159.286 216.123 C 159.325 215.869,159.324 215.494,159.284 215.289 C 159.244 215.084,159.213 215.292,159.214 215.750 M164.232 217.250 C 164.233 218.533,164.259 219.036,164.291 218.368 C 164.322 217.699,164.322 216.649,164.290 216.034 C 164.258 215.420,164.232 215.967,164.232 217.250 M305.209 216.250 C 305.211 216.617,305.245 216.747,305.285 216.540 C 305.324 216.332,305.323 216.032,305.281 215.873 C 305.239 215.714,305.207 215.883,305.209 216.250 M361.564 217.750 C 361.564 218.850,361.591 219.278,361.624 218.702 C 361.656 218.125,361.656 217.225,361.623 216.702 C 361.590 216.178,361.563 216.650,361.564 217.750 M371.239 216.052 C 371.193 216.173,371.179 217.092,371.209 218.094 L 371.263 219.917 371.298 217.961 L 371.333 216.006 375.208 215.958 L 379.083 215.910 375.203 215.872 C 372.124 215.841,371.306 215.879,371.239 216.052 M366.557 217.583 C 366.558 218.317,366.587 218.596,366.622 218.204 C 366.657 217.812,366.657 217.212,366.621 216.871 C 366.585 216.529,366.557 216.850,366.557 217.583 M186.718 218.250 C 186.719 218.800,186.750 219.005,186.787 218.705 C 186.825 218.406,186.824 217.956,186.786 217.705 C 186.748 217.455,186.717 217.700,186.718 218.250 M87.712 218.667 C 87.712 219.079,87.745 219.248,87.784 219.042 C 87.824 218.835,87.824 218.498,87.784 218.292 C 87.745 218.085,87.712 218.254,87.712 218.667 M159.217 218.833 C 159.217 219.338,159.248 219.544,159.286 219.292 C 159.324 219.040,159.324 218.627,159.286 218.375 C 159.248 218.123,159.217 218.329,159.217 218.833 M172.553 219.333 C 172.553 219.929,172.584 220.173,172.621 219.875 C 172.658 219.577,172.658 219.090,172.621 218.792 C 172.584 218.494,172.553 218.737,172.553 219.333 M102.209 219.083 C 102.211 219.450,102.245 219.580,102.285 219.373 C 102.324 219.166,102.323 218.866,102.281 218.706 C 102.239 218.547,102.207 218.717,102.209 219.083 M83.705 219.500 C 83.705 219.821,83.740 219.952,83.782 219.792 C 83.823 219.631,83.823 219.369,83.782 219.208 C 83.740 219.048,83.705 219.179,83.705 219.500 M73.872 219.833 C 73.872 220.154,73.906 220.285,73.948 220.125 C 73.990 219.965,73.990 219.702,73.948 219.542 C 73.906 219.381,73.872 219.512,73.872 219.833 M78.872 219.833 C 78.872 220.154,78.906 220.285,78.948 220.125 C 78.990 219.965,78.990 219.702,78.948 219.542 C 78.906 219.381,78.872 219.512,78.872 219.833 M106.548 220.083 C 106.549 220.542,106.581 220.709,106.620 220.456 C 106.658 220.203,106.657 219.828,106.617 219.623 C 106.578 219.418,106.546 219.625,106.548 220.083 M388.242 226.250 C 388.242 229.642,388.264 231.006,388.291 229.281 C 388.319 227.556,388.319 224.781,388.291 223.114 C 388.264 221.447,388.242 222.858,388.242 226.250 M87.548 222.083 C 87.549 222.542,87.581 222.709,87.620 222.456 C 87.658 222.203,87.657 221.828,87.617 221.623 C 87.578 221.418,87.546 221.625,87.548 222.083 M83.545 222.167 C 83.545 222.579,83.578 222.748,83.618 222.542 C 83.657 222.335,83.657 221.998,83.618 221.792 C 83.578 221.585,83.545 221.754,83.545 222.167 M314.042 222.083 C 314.044 222.450,314.078 222.580,314.118 222.373 C 314.158 222.166,314.156 221.866,314.115 221.706 C 314.073 221.547,314.040 221.717,314.042 222.083 M195.542 222.917 C 195.544 223.283,195.578 223.414,195.618 223.206 C 195.658 222.999,195.656 222.699,195.615 222.540 C 195.573 222.380,195.540 222.550,195.542 222.917 M106.705 223.167 C 106.705 223.487,106.740 223.619,106.782 223.458 C 106.823 223.298,106.823 223.035,106.782 222.875 C 106.740 222.715,106.705 222.846,106.705 223.167 M83.372 224.833 C 83.372 225.154,83.406 225.285,83.448 225.125 C 83.490 224.965,83.490 224.702,83.448 224.542 C 83.406 224.381,83.372 224.512,83.372 224.833 M87.379 226.167 C 87.379 226.579,87.411 226.748,87.451 226.542 C 87.491 226.335,87.491 225.998,87.451 225.792 C 87.411 225.585,87.379 225.754,87.379 226.167 M107.045 228.333 C 107.045 228.746,107.078 228.915,107.118 228.708 C 107.157 228.502,107.157 228.165,107.118 227.958 C 107.078 227.752,107.045 227.921,107.045 228.333 M102.718 229.083 C 102.719 229.633,102.750 229.838,102.787 229.539 C 102.825 229.239,102.824 228.789,102.786 228.539 C 102.748 228.288,102.717 228.533,102.718 229.083 M337.231 230.417 C 337.232 231.608,337.258 232.074,337.290 231.451 C 337.323 230.829,337.322 229.854,337.290 229.285 C 337.257 228.716,337.231 229.225,337.231 230.417 M30.294 228.618 C 30.501 228.658,30.801 228.656,30.960 228.615 C 31.120 228.573,30.950 228.540,30.583 228.542 C 30.217 228.544,30.086 228.578,30.294 228.618 M83.039 229.667 C 83.039 229.987,83.073 230.119,83.115 229.958 C 83.157 229.798,83.157 229.535,83.115 229.375 C 83.073 229.215,83.039 229.346,83.039 229.667 M35.906 230.875 L 35.417 231.417 35.958 230.927 C 36.256 230.658,36.500 230.414,36.500 230.385 C 36.500 230.257,36.362 230.370,35.906 230.875 M107.209 231.417 C 107.211 231.783,107.245 231.914,107.285 231.706 C 107.324 231.499,107.323 231.199,107.281 231.040 C 107.239 230.880,107.207 231.050,107.209 231.417 M93.209 231.833 C 93.264 232.034,93.617 232.085,95.014 232.093 L 96.750 232.103 95.089 232.045 C 94.040 232.008,93.375 231.913,93.285 231.785 C 93.182 231.641,93.161 231.655,93.209 231.833 M372.458 232.787 C 372.756 232.824,373.244 232.824,373.542 232.787 C 373.840 232.750,373.596 232.720,373.000 232.720 C 372.404 232.720,372.160 232.750,372.458 232.787 " stroke="none" fill="#948ca4" fill-rule="evenodd"></path>
</g>
</svg>